<svg width="21" height="19" viewBox="0 0 21 19" fill="none" xmlns="http://www.w3.org/2000/svg">
<path d="M8.3235 0.511997L5.1235 13.504L4.3555 9.792C5.59283 9.792 6.61683 10.176 7.4275 10.944C8.23817 11.712 8.6435 12.736 8.6435 14.016C8.6435 15.296 8.23817 16.3413 7.4275 17.152C6.61683 17.9627 5.61417 18.368 4.4195 18.368C3.18217 18.368 2.15817 17.9627 1.3475 17.152C0.536834 16.2987 0.1315 15.2533 0.1315 14.016C0.1315 13.5893 0.152834 13.184 0.1955 12.8C0.280833 12.416 0.408834 11.968 0.5795 11.456C0.750167 10.9013 0.984834 10.24 1.2835 9.472L4.2915 0.511997H8.3235ZM20.4195 0.511997L17.2195 13.504L16.4515 9.792C17.6888 9.792 18.7128 10.176 19.5235 10.944C20.3342 11.712 20.7395 12.736 20.7395 14.016C20.7395 15.296 20.3342 16.3413 19.5235 17.152C18.7128 17.9627 17.7102 18.368 16.5155 18.368C15.2782 18.368 14.2542 17.9627 13.4435 17.152C12.6328 16.2987 12.2275 15.2533 12.2275 14.016C12.2275 13.5893 12.2488 13.184 12.2915 12.8C12.3768 12.416 12.5048 11.968 12.6755 11.456C12.8462 10.9013 13.0808 10.24 13.3795 9.472L16.3875 0.511997H20.4195Z" fill="#4F575C" fill-opacity="0.2"/>
</svg>
