<svg width="64" height="64" viewBox="0 0 64 64" fill="none" xmlns="http://www.w3.org/2000/svg">
<path d="M14.6787 17.1837C14.6787 15.801 15.8363 14.6787 17.2632 14.6787H47.0642C48.4917 14.6787 49.6487 15.801 49.6487 17.1837V47.1442C49.6487 48.5272 48.4917 49.6487 47.0642 49.6487H17.2632C15.8364 49.6487 14.6787 48.5274 14.6787 47.1446V17.1833V17.1837Z" fill="#4F575C" fill-opacity="0.6"/>
<path d="M25.3055 43.944V28.2004H20.0726V43.944H25.3055ZM22.6902 26.0512C24.5146 26.0512 25.6505 24.8423 25.6505 23.3315C25.6163 21.7863 24.5146 20.6111 22.7249 20.6111C20.9339 20.6111 19.7642 21.7863 19.7642 23.3314C19.7642 24.8422 20.8996 26.0511 22.6559 26.0511L22.6902 26.0512ZM28.202 43.944H33.4346V35.153C33.4346 34.6831 33.4687 34.212 33.607 33.8763C33.9851 32.9358 34.8461 31.9623 36.292 31.9623C38.185 31.9623 38.9428 33.4059 38.9428 35.5225V43.944H44.1752V34.9171C44.1752 30.0815 41.5939 27.8313 38.1512 27.8313C35.3286 27.8313 34.0889 29.4089 33.4002 30.4834H33.435V28.2009H28.2023C28.2706 29.6779 28.202 43.944 28.202 43.944Z" fill="#FAFAFA"/>
</svg>
