<svg width="32" height="32" viewBox="0 0 32 32" fill="none" xmlns="http://www.w3.org/2000/svg">
<g id="forge-icon-96 1">
<path id="Vector" d="M9.45459 27.1482V5.5882C9.45474 5.49885 9.47924 5.41118 9.52553 5.33439C9.57181 5.25759 9.63818 5.19449 9.71767 5.15171C9.79716 5.10892 9.88685 5.08802 9.97734 5.0912C10.0678 5.09437 10.1558 5.12151 10.232 5.16976L27.4055 15.9497C27.4764 15.9949 27.5346 16.0569 27.5749 16.13C27.6153 16.2031 27.6364 16.285 27.6364 16.3682C27.6364 16.4514 27.6153 16.5333 27.5749 16.6064C27.5346 16.6795 27.4764 16.7415 27.4055 16.7866L10.2168 27.5666C10.1409 27.6111 10.0546 27.6351 9.9663 27.6363C9.87805 27.6375 9.79102 27.6159 9.71389 27.5735C9.63676 27.5312 9.57223 27.4696 9.52673 27.395C9.48123 27.3204 9.45636 27.2353 9.45459 27.1482Z" fill="#4F575C"/>
</g>
</svg>
